<?xml version="1.0" encoding="UTF-8" standalone="no"?>
<svg
   xmlns:dc="http://purl.org/dc/elements/1.1/"
   xmlns:cc="http://creativecommons.org/ns#"
   xmlns:rdf="http://www.w3.org/1999/02/22-rdf-syntax-ns#"
   xmlns:svg="http://www.w3.org/2000/svg"
   xmlns="http://www.w3.org/2000/svg"
   xmlns:sodipodi="http://sodipodi.sourceforge.net/DTD/sodipodi-0.dtd"
   xmlns:inkscape="http://www.inkscape.org/namespaces/inkscape"
   id="svg"
   width="400"
   height="400"
   viewBox="0, 0, 400,400"
   version="1.1"
   sodipodi:docname="image2vector(5).svg"
   inkscape:version="1.0.2 (1.0.2+r75+1)">
  <metadata
     id="metadata9">
    <rdf:RDF>
      <cc:Work
         rdf:about="">
        <dc:format>image/svg+xml</dc:format>
        <dc:type
           rdf:resource="http://purl.org/dc/dcmitype/StillImage" />
      </cc:Work>
    </rdf:RDF>
  </metadata>
  <defs
     id="defs7" />
  <sodipodi:namedview
     pagecolor="#ffffff"
     bordercolor="#666666"
     borderopacity="1"
     objecttolerance="10"
     gridtolerance="10"
     guidetolerance="10"
     inkscape:pageopacity="0"
     inkscape:pageshadow="2"
     inkscape:window-width="2493"
     inkscape:window-height="1385"
     id="namedview5"
     showgrid="false"
     inkscape:zoom="1.775"
     inkscape:cx="200"
     inkscape:cy="198.02817"
     inkscape:window-x="67"
     inkscape:window-y="27"
     inkscape:window-maximized="1"
     inkscape:current-layer="svg" />
  <g
     id="svgg">
    <path
       id="path0"
       d="M98.633 0.435 C 49.361 9.328,11.775 45.479,1.263 94.089 L 0.195 99.023 0.195 200.000 L 0.195 300.977 1.307 306.055 C 11.573 352.945,47.055 388.427,93.945 398.693 L 99.023 399.805 200.000 399.805 L 300.977 399.805 306.055 398.693 C 352.933 388.430,388.430 352.933,398.693 306.055 L 399.805 300.977 399.805 200.000 L 399.805 99.023 398.693 93.945 C 388.434 47.089,353.192 11.810,306.113 1.271 L 301.367 0.209 200.977 0.146 C 142.682 0.109,99.767 0.231,98.633 0.435 M289.648 14.459 C 340.968 18.661,381.488 59.329,385.540 110.701 C 386.082 117.572,386.082 282.428,385.540 289.299 C 381.485 340.700,341.152 381.177,289.648 385.533 C 283.248 386.074,116.752 386.074,110.352 385.533 C 58.848 381.177,18.515 340.700,14.460 289.299 C 13.918 282.428,13.918 117.572,14.460 110.701 C 18.485 59.683,59.073 18.665,109.665 14.487 C 115.313 14.020,283.974 13.994,289.648 14.459 M39.591 63.660 C 34.069 66.828,34.367 72.643,40.849 88.182 C 42.710 92.641,44.712 97.607,45.298 99.219 C 45.885 100.830,46.946 103.467,47.655 105.078 C 49.081 108.320,52.500 116.737,54.477 121.875 C 55.180 123.701,56.318 126.426,57.006 127.930 C 57.694 129.434,59.573 134.004,61.181 138.086 C 64.864 147.434,64.915 147.556,68.654 156.250 C 70.363 160.225,71.896 163.916,72.060 164.453 C 72.662 166.423,75.025 172.240,77.931 178.906 C 79.571 182.666,81.340 187.023,81.863 188.589 C 82.386 190.155,83.224 192.264,83.725 193.276 C 84.227 194.289,85.290 196.790,86.088 198.835 L 87.540 202.553 86.145 206.165 C 85.378 208.151,84.288 210.785,83.724 212.017 C 83.159 213.250,82.123 215.840,81.420 217.773 C 80.717 219.707,78.653 224.721,76.831 228.916 C 75.010 233.111,73.060 237.877,72.497 239.507 C 71.935 241.137,70.148 245.527,68.528 249.263 C 66.907 252.998,65.132 257.197,64.583 258.594 C 60.505 268.965,58.286 274.429,57.126 276.953 C 56.385 278.564,55.105 281.641,54.282 283.789 C 53.458 285.938,51.654 290.420,50.273 293.750 C 48.892 297.080,47.193 301.211,46.497 302.930 C 45.802 304.648,43.855 309.338,42.170 313.351 C 34.632 331.307,33.841 339.005,39.271 341.582 C 46.607 345.063,51.313 341.808,62.695 325.376 C 64.341 323.001,68.701 316.960,76.172 306.707 C 78.643 303.315,81.446 299.376,82.402 297.952 C 83.358 296.528,84.308 295.466,84.513 295.593 C 84.718 295.720,84.771 295.637,84.630 295.410 C 84.490 295.182,85.402 293.617,86.658 291.931 C 87.914 290.246,90.682 286.423,92.810 283.435 C 94.939 280.447,98.471 275.526,100.661 272.498 C 102.851 269.470,105.742 265.377,107.085 263.403 C 108.428 261.429,109.673 259.904,109.852 260.014 C 110.030 260.124,110.127 260.034,110.068 259.813 C 109.955 259.391,113.858 253.820,121.680 243.237 C 124.258 239.749,126.679 236.460,127.060 235.928 C 127.744 234.973,127.745 234.976,127.147 236.230 C 126.815 236.929,126.633 237.500,126.743 237.500 C 126.853 237.500,126.489 238.511,125.933 239.746 C 124.093 243.840,119.493 254.836,118.340 257.899 C 117.715 259.558,115.511 264.831,113.441 269.618 C 111.372 274.404,109.190 279.727,108.592 281.445 C 107.995 283.164,106.327 287.295,104.888 290.625 C 103.448 293.955,101.664 298.174,100.925 300.000 C 99.584 303.312,99.345 303.926,96.682 310.938 C 95.907 312.979,94.419 316.758,93.375 319.336 C 91.701 323.469,90.819 326.105,90.425 328.151 C 90.359 328.490,90.026 329.709,89.684 330.860 C 86.552 341.410,99.299 347.362,106.183 338.565 C 109.803 333.939,115.008 326.964,116.888 324.219 C 117.991 322.607,120.488 319.148,122.435 316.531 C 124.383 313.914,126.855 310.503,127.930 308.952 C 129.004 307.400,130.938 304.684,132.227 302.915 C 133.516 301.146,136.592 296.856,139.063 293.382 C 141.533 289.909,145.225 284.776,147.266 281.976 C 150.620 277.374,156.213 269.514,161.216 262.369 C 162.244 260.900,164.932 257.177,167.188 254.094 C 169.443 251.012,173.023 246.096,175.143 243.171 C 177.263 240.245,179.056 237.910,179.127 237.981 C 179.285 238.139,176.652 244.732,174.734 248.982 C 173.969 250.678,172.858 253.403,172.265 255.037 C 170.963 258.628,165.870 271.049,165.049 272.637 C 164.726 273.262,163.859 275.412,163.124 277.414 C 162.388 279.416,160.350 284.395,158.595 288.477 C 156.840 292.559,154.971 297.129,154.443 298.633 C 153.915 300.137,152.795 302.949,151.954 304.883 C 146.352 317.766,144.332 322.712,143.960 324.450 C 143.873 324.860,143.262 326.651,142.604 328.429 C 139.890 335.759,142.876 341.619,149.734 342.425 C 154.739 343.013,158.083 340.840,162.688 334.008 C 163.758 332.421,165.955 329.304,167.571 327.082 C 169.186 324.860,171.650 321.431,173.047 319.461 C 174.443 317.492,176.641 314.434,177.930 312.667 C 179.219 310.900,182.295 306.614,184.766 303.143 C 187.236 299.673,191.098 294.337,193.348 291.287 C 195.597 288.238,198.397 284.336,199.570 282.617 C 200.742 280.898,202.945 277.806,204.464 275.745 C 205.983 273.684,209.248 269.149,211.719 265.667 C 214.189 262.185,217.979 256.928,220.139 253.985 C 222.300 251.041,224.837 247.490,225.777 246.094 C 226.718 244.697,228.729 241.914,230.247 239.909 C 231.766 237.903,233.570 235.460,234.256 234.478 C 234.943 233.497,236.198 231.967,237.044 231.078 L 238.584 229.463 243.022 228.984 C 245.464 228.721,254.580 227.547,263.281 226.376 C 290.509 222.711,305.932 220.742,309.375 220.491 C 311.201 220.358,315.420 219.904,318.750 219.483 C 322.080 219.062,327.617 218.369,331.055 217.943 C 372.552 212.801,378.831 211.311,380.337 206.250 C 382.416 199.263,380.061 194.687,373.828 193.609 C 373.291 193.516,370.654 192.996,367.969 192.453 C 365.283 191.910,361.152 191.186,358.789 190.844 C 343.448 188.625,314.657 184.983,309.180 184.569 C 300.859 183.940,239.906 175.558,237.997 174.780 C 237.279 174.487,236.185 173.471,235.458 172.421 C 234.755 171.406,232.744 168.632,230.988 166.255 C 229.233 163.878,227.898 161.770,228.021 161.570 C 228.145 161.371,228.079 161.310,227.876 161.436 C 227.673 161.562,226.898 160.754,226.155 159.641 C 225.413 158.528,223.047 155.248,220.898 152.353 C 218.750 149.458,216.201 145.922,215.234 144.496 C 212.776 140.869,207.672 133.708,204.855 129.935 C 203.551 128.188,201.280 125.000,199.810 122.852 C 198.340 120.703,195.877 117.275,194.337 115.234 C 192.796 113.193,190.397 109.854,189.004 107.813 C 186.726 104.474,184.841 101.837,175.603 89.063 C 174.126 87.021,172.296 84.473,171.535 83.398 C 163.201 71.634,157.247 64.189,155.436 63.265 C 149.624 60.300,141.454 65.102,141.415 71.507 C 141.399 74.095,147.116 89.468,152.749 101.984 C 153.386 103.398,153.906 104.785,153.906 105.067 C 153.906 105.593,154.191 106.291,159.929 119.813 C 161.773 124.157,163.281 127.895,163.281 128.119 C 163.281 128.343,164.248 130.711,165.430 133.381 C 166.611 136.051,167.578 138.348,167.578 138.485 C 167.578 138.622,168.567 141.050,169.776 143.879 C 170.985 146.708,172.144 149.639,172.350 150.391 C 172.557 151.143,173.438 153.340,174.307 155.273 C 176.394 159.914,179.744 168.195,179.351 167.741 C 178.772 167.073,173.593 159.974,171.760 157.336 C 170.757 155.893,168.395 152.624,166.511 150.073 C 161.382 143.125,157.995 138.168,158.115 137.784 C 158.174 137.596,158.042 137.553,157.822 137.689 C 157.456 137.916,157.247 137.390,157.385 136.592 C 157.416 136.415,157.302 136.356,157.132 136.461 C 156.962 136.566,156.035 135.507,155.072 134.107 C 154.108 132.707,151.299 128.790,148.828 125.402 C 146.357 122.014,141.859 115.747,138.831 111.476 C 128.653 97.121,125.270 92.408,121.477 87.305 C 119.402 84.512,117.252 81.523,116.700 80.664 C 116.148 79.805,114.550 77.616,113.147 75.801 C 111.745 73.985,110.701 72.332,110.828 72.127 C 110.955 71.922,110.878 71.866,110.658 72.002 C 110.438 72.138,109.545 71.242,108.675 70.011 C 107.804 68.780,105.977 66.587,104.614 65.137 L 102.136 62.500 98.822 62.509 C 89.633 62.532,86.958 67.722,90.570 78.516 C 92.643 84.708,99.358 101.529,104.683 113.867 C 105.796 116.445,107.459 120.576,108.379 123.047 C 109.298 125.518,111.676 131.318,113.663 135.938 C 115.649 140.557,117.758 145.654,118.349 147.266 C 119.333 149.951,122.744 158.393,125.764 165.623 C 126.437 167.233,126.833 168.375,126.645 168.162 C 125.597 166.975,118.227 157.199,117.309 155.779 C 116.713 154.856,114.655 152.005,112.735 149.442 C 110.816 146.879,108.439 143.598,107.455 142.151 C 106.470 140.704,103.291 136.243,100.391 132.238 C 92.207 120.935,87.495 114.347,83.340 108.398 C 81.239 105.391,77.986 100.872,76.111 98.357 C 74.236 95.842,72.102 92.854,71.369 91.717 C 69.928 89.482,62.779 79.640,60.107 76.212 C 59.203 75.052,58.464 73.866,58.464 73.575 C 58.464 73.285,58.387 73.124,58.293 73.217 C 58.199 73.311,57.054 72.043,55.748 70.399 C 49.330 62.323,45.041 60.535,39.591 63.660 "
       stroke="none"
       fill="#000000"
       fill-rule="evenodd" />
  </g>
  <path
     style="fill:#ffffff;stroke-width:0.56338"
     d="M 89.859155,397.7819 C 80.09902,395.26593 75.593149,393.59779 66.197183,389.0219 33.569944,373.13224 10.981556,345.02859 1.9202184,309.05085 L 0,301.42668 V 200 98.573318 L 1.9252639,90.9768 C 4.3534473,81.39591 6.6470338,74.903132 10.380189,67.042254 24.964923,36.331282 51.737615,13.568254 84.939927,3.6490987 97.162586,-0.00240755 88.839577,0.24264603 200.67376,0.24155792 l 101.82248,-9.9155e-4 6.03055,1.48125823 c 22.86589,5.6164464 44.91504,18.3412634 60.20135,34.7428944 14.39224,15.442331 24.01938,33.312847 29.35164,54.484436 L 400,98.573318 V 200 301.42668 l -1.92022,7.62417 c -9.05122,35.93756 -31.76078,64.20306 -64.26549,79.98817 -9.20264,4.46903 -15.42826,6.73652 -24.78607,9.02758 l -6.74643,1.65171 -102.54934,-0.0242 -102.549351,-0.0242 -7.323944,-1.88797 z M 298.59155,384.37605 c 16.9349,-3.58381 28.87393,-8.4217 41.17769,-16.68589 23.80224,-15.9875 39.46865,-40.53522 44.60238,-69.88755 l 1.24151,-7.09838 0.006,-90.70423 0.006,-90.70423 -1.31727,-7.32394 C 380.48788,80.731431 372.2618,63.809961 358.0237,47.903393 344.75399,33.0787 323.67358,21.044408 303.24995,16.634405 292.65251,14.346138 290.38774,14.301181 196.05634,14.506569 105.56416,14.703597 105.04072,14.711208 99.596541,15.909095 83.221927,19.512015 73.31853,23.632203 60.56338,32.148369 39.651712,46.110357 24.413352,67.518535 17.806161,92.217448 14.210382,105.65913 14.365267,100.78037 14.37546,200.28169 l 0.0093,90.42254 1.234594,7.04225 c 5.200477,29.66407 20.764657,53.95714 44.944064,70.15014 13.274631,8.89005 29.630288,15.01586 45.653882,17.09911 2.23667,0.29079 43.52664,0.45946 96.03626,0.3923 81.67783,-0.10446 92.59134,-0.2191 96.33803,-1.01198 z"
     id="path15" />
  <path
     style="fill:#ffffff;stroke-width:0.56338"
     d="m 39.313169,341.6607 c -3.764762,-1.98795 -4.477916,-5.2665 -2.73859,-12.58998 1.154951,-4.86297 3.235312,-10.27266 14.429299,-37.52142 2.99137,-7.28169 7.984849,-19.45071 11.096619,-27.04226 3.111771,-7.59155 7.736844,-18.87324 10.277941,-25.07042 2.541097,-6.19718 6.968996,-17.03855 9.839777,-24.09193 l 5.219602,-12.82434 -1.437137,-3.51369 C 82.630152,190.76595 76.371701,175.50977 71.848113,164.50704 49.210946,109.44665 37.600368,80.454022 36.562347,76.395399 c -0.588164,-2.2997 -1.068995,-4.964662 -1.068514,-5.922139 0.0032,-6.271824 7.470204,-10.199938 13.197866,-6.942865 2.879378,1.637377 8.755089,8.466288 15.949326,18.536738 48.475695,67.855997 58.019535,81.076297 61.140885,84.693427 0.5974,0.6923 0.67069,0.88093 -6.29327,-16.19718 -12.51327,-30.68698 -16.98567,-41.6008 -20.027891,-48.87324 -1.749881,-4.183098 -4.731645,-11.661971 -6.626141,-16.619717 -3.159384,-8.26787 -3.448438,-9.395533 -3.491684,-13.62188 -0.04427,-4.326765 0.05066,-4.710079 1.556614,-6.284861 1.749859,-1.829842 5.069042,-2.910161 8.941211,-2.910161 2.344201,0 2.584191,0.16877 6.088551,4.281837 2.00649,2.35501 4.07849,4.826841 4.60445,5.492958 1.68637,2.135765 40.68965,56.233124 47.48875,65.866674 6.97613,9.88438 20.12671,28.0205 20.31778,28.0205 0.12916,0 -0.25777,-1.20422 -0.85983,-2.67605 -0.60207,-1.47183 -2.84519,-6.98592 -4.98471,-12.25352 -2.13953,-5.26761 -6.49728,-15.9155 -9.68389,-23.66198 -3.1866,-7.74648 -6.66215,-16.23943 -7.72343,-18.87324 -1.06128,-2.6338 -3.60275,-8.845066 -5.64771,-13.802813 -4.86753,-11.800706 -8.02666,-20.954744 -8.02976,-23.267414 -0.007,-5.140765 5.80566,-9.705316 11.40289,-8.954571 4.1332,0.554379 5.48521,2.240978 36.21699,45.179728 11.08849,15.49296 24.24065,33.84111 29.22701,40.77367 4.98636,6.93256 11.05852,15.3744 13.49369,18.75964 2.43517,3.38523 4.97039,6.5101 5.63381,6.94415 1.70363,1.11464 47.2477,7.64187 72.75551,10.42709 27.73738,3.02867 60.43105,7.79573 65.89125,9.60759 4.09628,1.35928 5.88429,5.22872 4.80918,10.40754 -1.12413,5.41491 -4.36915,6.95483 -19.99767,9.4899 -8.88933,1.44192 -38.90585,5.33411 -50.42107,6.53802 -14.56626,1.52289 -71.9035,9.21975 -72.55203,9.73927 -1.39049,1.11387 -21.26129,28.55032 -63.3384,87.45398 -14.77532,20.68393 -17.20226,23.55731 -20.69057,24.49661 -6.34306,1.70801 -12.37597,-2.54119 -12.42072,-8.74835 -0.0163,-2.25557 3.62246,-12.90448 7.30621,-21.38206 1.61571,-3.71831 4.03678,-9.5493 5.38015,-12.95775 1.34337,-3.40845 4.75448,-11.77465 7.58025,-18.59155 2.82576,-6.8169 6.87579,-16.70423 9.00007,-21.97183 2.12427,-5.26761 4.77764,-11.70534 5.89636,-14.30607 1.11873,-2.60073 1.94638,-4.81627 1.83923,-4.92343 -0.23433,-0.23433 -3.41239,4.09535 -20.31772,27.6802 -50.96771,71.10569 -52.16769,72.72229 -55.28847,74.48399 -5.455125,3.07946 -12.462005,0.0921 -13.564178,-5.78295 -0.856058,-4.56318 3.704467,-16.97398 26.073248,-70.95456 2.95323,-7.12676 6.75136,-16.21519 8.44028,-20.1965 1.68893,-3.98133 2.97444,-7.3351 2.8567,-7.45285 -0.11775,-0.11775 -3.71568,4.66082 -7.9954,10.61904 -4.27971,5.95822 -8.24459,11.46693 -8.81082,12.24158 -0.56623,0.77465 -6.26969,8.76056 -12.674353,17.74648 -6.40467,8.98591 -12.110832,16.97183 -12.680367,17.74648 -0.569535,0.77465 -6.419815,8.88732 -13.000622,18.02817 -16.433942,22.82701 -18.587582,25.45786 -23.010684,28.10946 -2.500538,1.49906 -6.331765,1.51168 -9.137535,0.0301 z"
     id="path17" />
</svg>
