<svg id="svg" xmlns="http://www.w3.org/2000/svg" xmlns:xlink="http://www.w3.org/1999/xlink" width="400" height="400" viewBox="0, 0, 400,400" version="1.1"><g id="svgg"><path id="path0" d="M98.633 0.435 C 49.361 9.328,11.775 45.479,1.263 94.089 L 0.195 99.023 0.195 200.000 L 0.195 300.977 1.307 306.055 C 11.573 352.945,47.055 388.427,93.945 398.693 L 99.023 399.805 200.000 399.805 L 300.977 399.805 306.055 398.693 C 352.933 388.430,388.430 352.933,398.693 306.055 L 399.805 300.977 399.805 200.000 L 399.805 99.023 398.693 93.945 C 388.434 47.089,353.192 11.810,306.113 1.271 L 301.367 0.209 200.977 0.146 C 142.682 0.109,99.767 0.231,98.633 0.435 M289.648 14.459 C 340.968 18.661,381.488 59.329,385.540 110.701 C 386.082 117.572,386.082 282.428,385.540 289.299 C 381.485 340.700,341.152 381.177,289.648 385.533 C 283.248 386.074,116.752 386.074,110.352 385.533 C 58.848 381.177,18.515 340.700,14.460 289.299 C 13.918 282.428,13.918 117.572,14.460 110.701 C 18.485 59.683,59.073 18.665,109.665 14.487 C 115.313 14.020,283.974 13.994,289.648 14.459 M39.591 63.660 C 34.069 66.828,34.367 72.643,40.849 88.182 C 42.710 92.641,44.712 97.607,45.298 99.219 C 45.885 100.830,46.946 103.467,47.655 105.078 C 49.081 108.320,52.500 116.737,54.477 121.875 C 55.180 123.701,56.318 126.426,57.006 127.930 C 57.694 129.434,59.573 134.004,61.181 138.086 C 64.864 147.434,64.915 147.556,68.654 156.250 C 70.363 160.225,71.896 163.916,72.060 164.453 C 72.662 166.423,75.025 172.240,77.931 178.906 C 79.571 182.666,81.340 187.023,81.863 188.589 C 82.386 190.155,83.224 192.264,83.725 193.276 C 84.227 194.289,85.290 196.790,86.088 198.835 L 87.540 202.553 86.145 206.165 C 85.378 208.151,84.288 210.785,83.724 212.017 C 83.159 213.250,82.123 215.840,81.420 217.773 C 80.717 219.707,78.653 224.721,76.831 228.916 C 75.010 233.111,73.060 237.877,72.497 239.507 C 71.935 241.137,70.148 245.527,68.528 249.263 C 66.907 252.998,65.132 257.197,64.583 258.594 C 60.505 268.965,58.286 274.429,57.126 276.953 C 56.385 278.564,55.105 281.641,54.282 283.789 C 53.458 285.938,51.654 290.420,50.273 293.750 C 48.892 297.080,47.193 301.211,46.497 302.930 C 45.802 304.648,43.855 309.338,42.170 313.351 C 34.632 331.307,33.841 339.005,39.271 341.582 C 46.607 345.063,51.313 341.808,62.695 325.376 C 64.341 323.001,68.701 316.960,76.172 306.707 C 78.643 303.315,81.446 299.376,82.402 297.952 C 83.358 296.528,84.308 295.466,84.513 295.593 C 84.718 295.720,84.771 295.637,84.630 295.410 C 84.490 295.182,85.402 293.617,86.658 291.931 C 87.914 290.246,90.682 286.423,92.810 283.435 C 94.939 280.447,98.471 275.526,100.661 272.498 C 102.851 269.470,105.742 265.377,107.085 263.403 C 108.428 261.429,109.673 259.904,109.852 260.014 C 110.030 260.124,110.127 260.034,110.068 259.813 C 109.955 259.391,113.858 253.820,121.680 243.237 C 124.258 239.749,126.679 236.460,127.060 235.928 C 127.744 234.973,127.745 234.976,127.147 236.230 C 126.815 236.929,126.633 237.500,126.743 237.500 C 126.853 237.500,126.489 238.511,125.933 239.746 C 124.093 243.840,119.493 254.836,118.340 257.899 C 117.715 259.558,115.511 264.831,113.441 269.618 C 111.372 274.404,109.190 279.727,108.592 281.445 C 107.995 283.164,106.327 287.295,104.888 290.625 C 103.448 293.955,101.664 298.174,100.925 300.000 C 99.584 303.312,99.345 303.926,96.682 310.938 C 95.907 312.979,94.419 316.758,93.375 319.336 C 91.701 323.469,90.819 326.105,90.425 328.151 C 90.359 328.490,90.026 329.709,89.684 330.860 C 86.552 341.410,99.299 347.362,106.183 338.565 C 109.803 333.939,115.008 326.964,116.888 324.219 C 117.991 322.607,120.488 319.148,122.435 316.531 C 124.383 313.914,126.855 310.503,127.930 308.952 C 129.004 307.400,130.938 304.684,132.227 302.915 C 133.516 301.146,136.592 296.856,139.063 293.382 C 141.533 289.909,145.225 284.776,147.266 281.976 C 150.620 277.374,156.213 269.514,161.216 262.369 C 162.244 260.900,164.932 257.177,167.188 254.094 C 169.443 251.012,173.023 246.096,175.143 243.171 C 177.263 240.245,179.056 237.910,179.127 237.981 C 179.285 238.139,176.652 244.732,174.734 248.982 C 173.969 250.678,172.858 253.403,172.265 255.037 C 170.963 258.628,165.870 271.049,165.049 272.637 C 164.726 273.262,163.859 275.412,163.124 277.414 C 162.388 279.416,160.350 284.395,158.595 288.477 C 156.840 292.559,154.971 297.129,154.443 298.633 C 153.915 300.137,152.795 302.949,151.954 304.883 C 146.352 317.766,144.332 322.712,143.960 324.450 C 143.873 324.860,143.262 326.651,142.604 328.429 C 139.890 335.759,142.876 341.619,149.734 342.425 C 154.739 343.013,158.083 340.840,162.688 334.008 C 163.758 332.421,165.955 329.304,167.571 327.082 C 169.186 324.860,171.650 321.431,173.047 319.461 C 174.443 317.492,176.641 314.434,177.930 312.667 C 179.219 310.900,182.295 306.614,184.766 303.143 C 187.236 299.673,191.098 294.337,193.348 291.287 C 195.597 288.238,198.397 284.336,199.570 282.617 C 200.742 280.898,202.945 277.806,204.464 275.745 C 205.983 273.684,209.248 269.149,211.719 265.667 C 214.189 262.185,217.979 256.928,220.139 253.985 C 222.300 251.041,224.837 247.490,225.777 246.094 C 226.718 244.697,228.729 241.914,230.247 239.909 C 231.766 237.903,233.570 235.460,234.256 234.478 C 234.943 233.497,236.198 231.967,237.044 231.078 L 238.584 229.463 243.022 228.984 C 245.464 228.721,254.580 227.547,263.281 226.376 C 290.509 222.711,305.932 220.742,309.375 220.491 C 311.201 220.358,315.420 219.904,318.750 219.483 C 322.080 219.062,327.617 218.369,331.055 217.943 C 372.552 212.801,378.831 211.311,380.337 206.250 C 382.416 199.263,380.061 194.687,373.828 193.609 C 373.291 193.516,370.654 192.996,367.969 192.453 C 365.283 191.910,361.152 191.186,358.789 190.844 C 343.448 188.625,314.657 184.983,309.180 184.569 C 300.859 183.940,239.906 175.558,237.997 174.780 C 237.279 174.487,236.185 173.471,235.458 172.421 C 234.755 171.406,232.744 168.632,230.988 166.255 C 229.233 163.878,227.898 161.770,228.021 161.570 C 228.145 161.371,228.079 161.310,227.876 161.436 C 227.673 161.562,226.898 160.754,226.155 159.641 C 225.413 158.528,223.047 155.248,220.898 152.353 C 218.750 149.458,216.201 145.922,215.234 144.496 C 212.776 140.869,207.672 133.708,204.855 129.935 C 203.551 128.188,201.280 125.000,199.810 122.852 C 198.340 120.703,195.877 117.275,194.337 115.234 C 192.796 113.193,190.397 109.854,189.004 107.813 C 186.726 104.474,184.841 101.837,175.603 89.063 C 174.126 87.021,172.296 84.473,171.535 83.398 C 163.201 71.634,157.247 64.189,155.436 63.265 C 149.624 60.300,141.454 65.102,141.415 71.507 C 141.399 74.095,147.116 89.468,152.749 101.984 C 153.386 103.398,153.906 104.785,153.906 105.067 C 153.906 105.593,154.191 106.291,159.929 119.813 C 161.773 124.157,163.281 127.895,163.281 128.119 C 163.281 128.343,164.248 130.711,165.430 133.381 C 166.611 136.051,167.578 138.348,167.578 138.485 C 167.578 138.622,168.567 141.050,169.776 143.879 C 170.985 146.708,172.144 149.639,172.350 150.391 C 172.557 151.143,173.438 153.340,174.307 155.273 C 176.394 159.914,179.744 168.195,179.351 167.741 C 178.772 167.073,173.593 159.974,171.760 157.336 C 170.757 155.893,168.395 152.624,166.511 150.073 C 161.382 143.125,157.995 138.168,158.115 137.784 C 158.174 137.596,158.042 137.553,157.822 137.689 C 157.456 137.916,157.247 137.390,157.385 136.592 C 157.416 136.415,157.302 136.356,157.132 136.461 C 156.962 136.566,156.035 135.507,155.072 134.107 C 154.108 132.707,151.299 128.790,148.828 125.402 C 146.357 122.014,141.859 115.747,138.831 111.476 C 128.653 97.121,125.270 92.408,121.477 87.305 C 119.402 84.512,117.252 81.523,116.700 80.664 C 116.148 79.805,114.550 77.616,113.147 75.801 C 111.745 73.985,110.701 72.332,110.828 72.127 C 110.955 71.922,110.878 71.866,110.658 72.002 C 110.438 72.138,109.545 71.242,108.675 70.011 C 107.804 68.780,105.977 66.587,104.614 65.137 L 102.136 62.500 98.822 62.509 C 89.633 62.532,86.958 67.722,90.570 78.516 C 92.643 84.708,99.358 101.529,104.683 113.867 C 105.796 116.445,107.459 120.576,108.379 123.047 C 109.298 125.518,111.676 131.318,113.663 135.938 C 115.649 140.557,117.758 145.654,118.349 147.266 C 119.333 149.951,122.744 158.393,125.764 165.623 C 126.437 167.233,126.833 168.375,126.645 168.162 C 125.597 166.975,118.227 157.199,117.309 155.779 C 116.713 154.856,114.655 152.005,112.735 149.442 C 110.816 146.879,108.439 143.598,107.455 142.151 C 106.470 140.704,103.291 136.243,100.391 132.238 C 92.207 120.935,87.495 114.347,83.340 108.398 C 81.239 105.391,77.986 100.872,76.111 98.357 C 74.236 95.842,72.102 92.854,71.369 91.717 C 69.928 89.482,62.779 79.640,60.107 76.212 C 59.203 75.052,58.464 73.866,58.464 73.575 C 58.464 73.285,58.387 73.124,58.293 73.217 C 58.199 73.311,57.054 72.043,55.748 70.399 C 49.330 62.323,45.041 60.535,39.591 63.660 " stroke="none" fill="#000000" fill-rule="evenodd"></path></g></svg>